<svg width="16" height="16" viewBox="0 0 16 16" fill="none" xmlns="http://www.w3.org/2000/svg">
<path d="M7.99999 11.9982C10.2091 11.9982 12 10.2074 12 7.99822C12 5.78909 10.2091 3.99823 7.99999 3.99823C5.79086 3.99823 4 5.78909 4 7.99822C4 10.2074 5.79086 11.9982 7.99999 11.9982Z" fill="white"/>
<path d="M7.99981 4H14.9269C14.2249 2.7838 13.2152 1.77384 11.9991 1.07168C10.783 0.369517 9.40351 -9.79565e-05 7.99928 1.94732e-08C6.59506 9.79955e-05 5.2156 0.369905 3.99963 1.07224C2.78366 1.77457 1.77403 2.78467 1.07227 4.00097L4.53579 9.99999L4.53889 9.99919C4.18656 9.39161 4.00062 8.70189 3.99984 7.99955C3.99905 7.2972 4.18343 6.60707 4.53439 5.9987C4.88536 5.39033 5.3905 4.88524 5.99891 4.53434C6.60731 4.18344 7.29747 3.99914 7.99981 4Z" fill="url(#paint0_linear_209_2036)"/>
<path d="M8.00064 11.1666C9.74954 11.1666 11.1673 9.74887 11.1673 7.99997C11.1673 6.25107 9.74954 4.83331 8.00064 4.83331C6.25175 4.83331 4.83398 6.25107 4.83398 7.99997C4.83398 9.74887 6.25175 11.1666 8.00064 11.1666Z" fill="#1A73E8"/>
<path d="M11.463 10.001L7.99948 16C9.4037 16.0002 10.7832 15.6306 11.9993 14.9286C13.2155 14.2265 14.2253 13.2166 14.9273 12.0005C15.6293 10.7843 15.9988 9.40479 15.9986 8.00056C15.9983 6.59634 15.6284 5.21693 14.9259 4.00104H7.99888L7.99805 4.00414C8.70039 4.00278 9.39068 4.18661 9.99933 4.5371C10.608 4.88758 11.1135 5.39233 11.4648 6.00046C11.8162 6.60859 12.0011 7.29861 12.0007 8.00095C12.0004 8.7033 11.8149 9.39315 11.463 10.001Z" fill="url(#paint1_linear_209_2036)"/>
<path d="M4.53563 10.001L1.0721 4.00201C0.369813 5.21801 5.23369e-05 6.59748 5.55552e-09 8.00171C-5.23258e-05 9.40593 0.369606 10.7854 1.07181 12.0015C1.77401 13.2175 2.78399 14.2273 4.00022 14.9292C5.21644 15.6311 6.59602 16.0004 8.00025 16L11.4638 10.001L11.4615 9.9987C11.1115 10.6076 10.6072 11.1135 9.99933 11.4654C9.39147 11.8172 8.7016 12.0026 7.99926 12.0028C7.29692 12.0031 6.60692 11.8181 5.99883 11.4667C5.39074 11.1153 4.88605 10.6097 4.53563 10.001Z" fill="url(#paint2_linear_209_2036)"/>
<defs>
<linearGradient id="paint0_linear_209_2036" x1="1.07227" y1="5" x2="14.9269" y2="5" gradientUnits="userSpaceOnUse">
<stop stop-color="#D93025"/>
<stop offset="1" stop-color="#EA4335"/>
</linearGradient>
<linearGradient id="paint1_linear_209_2036" x1="6.90655" y1="15.893" x2="13.8339" y2="3.89457" gradientUnits="userSpaceOnUse">
<stop stop-color="#FCC934"/>
<stop offset="1" stop-color="#FBBC04"/>
</linearGradient>
<linearGradient id="paint2_linear_209_2036" x1="8.86545" y1="15.5005" x2="1.93813" y2="3.50202" gradientUnits="userSpaceOnUse">
<stop stop-color="#1E8E3E"/>
<stop offset="1" stop-color="#34A853"/>
</linearGradient>
</defs>
</svg>
