<svg width="168" height="200" viewBox="0 0 168 200" fill="none" xmlns="http://www.w3.org/2000/svg">
<path d="M50.0047 2.24394C42.4389 2.24394 36.2076 15.0966 30.8807 27.4383C30.5057 28.3047 30.2189 28.9824 30.0094 29.4267C29.5572 30.3931 28.5095 32.426 27.2853 34.7811C14.3926 59.5977 12.2861 66.0851 16.0138 69.4732C17.8446 71.1395 20.0945 71.2839 21.2525 71.2839C21.3849 71.2839 21.5062 71.2839 21.6054 71.2839C27.1198 71.2062 32.5681 70.3397 37.8619 69.4399C37.6744 69.9731 37.4539 70.5063 37.2443 71.0173C34.432 77.6603 30.5167 84.2143 26.7228 90.5685L24.9692 93.5011C20.271 101.422 14.7455 108.998 8.55832 115.996C4.08063 121.062 2.41528 124.672 3.12112 127.727C3.54022 129.549 4.76442 130.959 6.56212 131.704C7.62088 132.137 8.56937 132.137 9.08772 132.137C16.8851 132.137 24.5722 130.937 31.9725 128.571C31.9174 128.749 31.8622 128.938 31.7961 129.138L31.6527 129.604C30.3072 133.881 28.7411 138.124 27.0096 142.235C23.2157 151.221 18.1093 159.686 13.1794 167.873C9.97002 173.205 6.65036 178.715 3.66154 184.403C1.36755 188.768 1.80869 192.979 4.78647 195.123C7.35619 196.978 10.6428 197.433 13.7639 197.433C15.4624 197.433 17.1167 197.3 18.5725 197.178C19.2342 197.122 19.8629 197.067 20.4364 197.044C26.6787 196.689 32.8218 195.523 38.7663 194.389C46.3982 192.934 57.0852 190.313 66.6692 187.535C68.7206 186.947 69.9007 184.792 69.3161 182.725C68.8309 181.026 67.2868 179.915 65.6105 179.915C65.2575 179.915 64.8936 179.959 64.5407 180.07C55.1772 182.781 44.7549 185.347 37.3436 186.758C31.6527 187.846 25.7633 188.968 20.0173 189.291C19.3887 189.324 18.6938 189.379 17.9659 189.446C16.7197 189.546 15.1867 189.679 13.7198 189.679C12.253 189.679 10.9957 189.568 10.0362 189.213C10.1244 188.902 10.2678 188.513 10.4994 188.08C13.389 182.592 16.6425 177.182 19.7967 171.939C24.87 163.519 30.1197 154.809 34.1342 145.312C35.965 140.968 37.6193 136.491 39.031 131.981L39.1633 131.581C40.0897 128.727 41.6338 123.961 38.7442 121.162C38.1046 120.539 36.9245 119.729 35.1047 119.729C34.3437 119.729 33.4724 119.873 32.4799 120.24C25.8405 122.683 18.9144 124.061 11.856 124.35C12.3964 123.561 13.1794 122.539 14.3264 121.239C20.8665 113.841 26.6787 105.876 31.6306 97.5335L33.3622 94.6231C37.2884 88.0468 41.347 81.2594 44.3689 74.1166C45.1851 72.1837 46.7181 68.5734 45.7475 64.7743C45.4498 63.5746 44.8432 62.6303 43.9498 61.9749C43.1668 61.4084 42.2624 61.1195 41.2588 61.1195C40.95 61.1195 40.6302 61.1418 40.3103 61.1973L37.6855 61.6416C32.6563 62.497 27.4728 63.3746 22.4657 63.5301C24.1421 57.7092 31.5204 43.5013 34.1562 38.4247C35.4797 35.8808 36.5164 33.8701 37.0348 32.7593C37.2664 32.2705 37.5862 31.5151 37.9943 30.5709C45.4277 13.3303 48.9569 10.5421 50.0598 10.1199C50.8318 10.4976 51.7252 11.3419 52.5964 12.175C53.8206 13.3303 56.8315 15.6854 62.4893 20.0955C70.4962 26.3274 90.4694 41.8794 95.664 48.0336C91.0319 49.8999 85.9586 51.1996 81.0398 52.4548L78.4701 53.1102C77.0915 53.4657 76.0768 54.1989 75.4482 55.2986C74.8967 56.2651 74.7203 57.3759 74.9188 58.5979C75.5585 62.4748 78.3929 65.152 79.9259 66.585C85.5395 71.8838 91.9694 76.4494 98.1786 80.8706L100.958 82.848C108.821 88.48 117.336 93.4123 126.236 97.5002C127.824 98.2334 128.96 98.8555 129.776 99.3554C123.203 101.955 116.321 103.51 109.263 103.965C105.7 104.199 104.377 106.187 103.903 107.354C102.381 111.097 105.711 114.83 107.685 117.062L107.961 117.385C111.071 120.939 114.369 124.372 117.777 127.593C125.243 134.658 133.537 140.502 141.544 146.145C146.529 149.655 151.679 153.288 156.51 157.142C156.896 157.453 157.183 157.753 157.392 157.998C155.892 159.464 152.551 160.63 150.246 161.43C149.551 161.675 148.889 161.897 148.305 162.13C142.923 164.163 137.077 165.529 131.43 166.84C120.479 169.395 101.101 172.572 88.9033 173.239C86.7748 173.35 85.1425 175.183 85.2528 177.327C85.3631 179.393 87.0505 181.004 89.1019 181.004C89.1791 181.004 89.2452 181.004 89.3224 181.004C101.939 180.315 121.913 177.049 133.184 174.416C139.073 173.039 145.161 171.617 151.018 169.406C151.558 169.206 152.154 168.995 152.782 168.773C156.709 167.407 162.091 165.529 164.572 161.297C166.436 158.12 165.157 154.099 161.308 151.033C156.3 147.045 151.051 143.345 145.978 139.768C138.191 134.281 130.129 128.593 123.06 121.917C119.828 118.862 116.696 115.607 113.751 112.241L113.431 111.875C113.299 111.719 113.167 111.575 113.045 111.43C120.766 110.586 128.276 108.564 135.412 105.41C135.886 105.198 136.768 104.81 137.551 103.988C138.897 102.577 139.459 100.788 139.107 98.9554C138.522 95.8672 135.555 93.2345 129.467 90.4351C120.964 86.5249 112.891 81.8371 105.413 76.4938C104.487 75.8273 103.561 75.1719 102.623 74.5054C96.6235 70.2397 90.4143 65.8296 85.1976 60.8974C84.7896 60.5197 84.3815 60.1198 83.9955 59.7087C89.1901 58.3757 94.528 56.9649 99.6013 54.7987C100.495 54.4211 102.866 53.3991 103.991 50.8774C105.491 47.5115 103.958 44.1234 90.9106 32.9703C83.4771 26.6162 74.0696 19.2845 67.1986 13.9413C62.7319 10.4643 58.8718 7.46499 57.8792 6.52076C56.4896 5.20995 54.7801 3.58809 52.5082 2.73272C51.659 2.42168 50.8318 2.26616 50.0157 2.26616M50.0157 0.0444439C51.1076 0.0444439 52.1994 0.244391 53.2802 0.644301C55.9713 1.65518 57.9565 3.52144 59.3902 4.8878C60.3056 5.75427 64.287 8.85357 68.5 12.1306L67.2317 13.9524L68.5772 12.1973C75.4592 17.5516 84.8778 24.8833 92.3333 31.2596C105.281 42.346 108.226 46.7561 105.998 51.7661C104.52 55.0876 101.465 56.3984 100.462 56.8205C96.5684 58.4868 92.5318 59.7199 88.407 60.8307C93.1494 65.0409 98.5977 68.9067 103.88 72.6725C104.829 73.339 105.755 74.0055 106.682 74.672C114.038 79.9375 122.012 84.5587 130.372 88.4023C137.177 91.5349 140.54 94.6564 141.268 98.5222C141.742 101.055 140.959 103.599 139.129 105.51C138.037 106.643 136.857 107.165 136.294 107.42C130.25 110.097 123.931 111.986 117.457 113.052C119.74 115.552 122.122 117.973 124.56 120.284C131.508 126.86 139.504 132.492 147.224 137.936C152.319 141.524 157.591 145.245 162.653 149.277C167.418 153.077 168.906 158.231 166.447 162.419C163.546 167.34 157.723 169.373 153.477 170.861L153.378 170.895C152.804 171.095 152.264 171.284 151.768 171.472C145.779 173.727 139.625 175.172 133.669 176.56C122.299 179.215 102.149 182.503 89.4107 183.203C89.3004 183.203 89.1901 183.203 89.0688 183.203C85.8484 183.203 83.2014 180.659 83.025 177.427C82.8485 174.061 85.4182 171.172 88.76 170.995C100.848 170.339 120.049 167.196 130.912 164.652C136.493 163.352 142.25 162.008 147.511 160.019C148.117 159.786 148.79 159.553 149.507 159.308C150.665 158.909 152.297 158.331 153.665 157.709C149.308 154.321 144.72 151.088 140.276 147.955C132.203 142.257 123.854 136.369 116.255 129.204C112.803 125.938 109.45 122.45 106.296 118.84L106.02 118.529C103.847 116.085 99.7998 111.519 101.84 106.498C102.381 105.176 104.167 102.055 109.097 101.733C114.214 101.399 119.255 100.466 124.14 98.9666C115.527 94.923 107.299 90.1019 99.6564 84.6365L96.8882 82.6591C90.6128 78.1935 84.1168 73.5834 78.3929 68.1846C76.7937 66.685 73.485 63.5523 72.724 58.9311C72.4373 57.1871 72.702 55.5763 73.5181 54.1544C74.4445 52.5437 75.9665 51.4328 77.9076 50.933L80.4883 50.2775C84.2492 49.3222 88.1093 48.3335 91.7488 47.0894C84.558 40.0576 67.8824 27.0828 61.1328 21.8284C55.2544 17.2517 52.3759 14.9966 51.0745 13.7747C50.7656 13.4859 50.4127 13.1415 50.0708 12.8416C48.7253 14.2746 45.527 18.618 40.0015 31.4374C39.5824 32.4038 39.2516 33.1814 39.02 33.6813C38.4795 34.8477 37.4208 36.8806 36.0973 39.4355C34.0129 43.4457 28.2999 54.4433 25.653 61.0862C29.5021 60.7419 33.4614 60.0753 37.3105 59.4199L39.9464 58.9756C40.3986 58.8978 40.8397 58.8645 41.2588 58.8645C42.7367 58.8645 44.0822 59.2977 45.2512 60.1531C46.5526 61.1084 47.457 62.5081 47.8871 64.2077C49.0341 68.74 47.2475 72.9502 46.3982 74.972C43.3102 82.2481 39.2185 89.1132 35.2481 95.7451L33.5166 98.6555C28.719 106.743 23.1164 114.485 16.841 121.695C21.9142 121.095 26.8993 119.895 31.7189 118.129C32.8769 117.707 34.0239 117.485 35.1047 117.485C37.0679 117.485 38.9097 118.218 40.2662 119.54C44.1483 123.317 42.2624 129.126 41.2478 132.248L41.1154 132.648C39.6817 137.213 38.0053 141.757 36.1525 146.167C32.0828 155.809 26.789 164.585 21.6716 173.072C18.8593 177.749 15.9476 182.57 13.3228 187.435C13.4441 187.435 13.5765 187.435 13.7088 187.435C15.0874 187.435 16.5763 187.313 17.7784 187.213C18.5284 187.147 19.2342 187.091 19.8849 187.058C25.4876 186.736 31.2998 185.636 36.9245 184.558C44.2697 183.159 54.6147 180.615 63.923 177.915C64.4745 177.76 65.037 177.671 65.6105 177.671C68.3015 177.671 70.6947 179.493 71.4337 182.092C71.8859 183.659 71.6984 185.314 70.9153 186.736C70.1323 188.169 68.8419 189.202 67.2868 189.646C57.6476 192.445 46.8835 195.089 39.1854 196.556C33.1747 197.7 26.9655 198.888 20.5798 199.244C20.0283 199.277 19.4217 199.322 18.771 199.377C17.2711 199.499 15.5727 199.644 13.775 199.644C9.41859 199.644 6.06583 198.755 3.51816 196.922C-0.408096 194.09 -1.11394 188.768 1.73149 183.359C4.7534 177.627 8.08409 172.083 11.3045 166.729C16.2013 158.598 21.2635 150.199 25.0023 141.357C26.3147 138.258 27.5169 135.07 28.6087 131.859C22.2561 133.514 15.716 134.347 9.1208 134.347C8.50319 134.347 7.21281 134.347 5.76804 133.748C3.31964 132.748 1.58812 130.726 1.00359 128.216C0.121292 124.383 1.95207 120.151 6.94812 114.496C13.0471 107.598 18.4843 100.144 23.1164 92.3458L24.87 89.4132C28.2117 83.8255 31.6527 78.0602 34.3106 72.2726C30.0866 72.928 25.9067 73.439 21.6826 73.4945C21.5834 73.4945 21.451 73.4945 21.2966 73.4945C18.5725 73.4945 16.3226 72.6947 14.5801 71.1062C9.46269 66.4406 12.275 58.9423 25.3773 33.7368C26.5905 31.3929 27.6382 29.3823 28.0573 28.4714C28.2558 28.0381 28.5426 27.3827 28.8955 26.5607C34.6967 13.1082 41.1044 0 50.0598 0L50.0157 0.0444439Z" fill="#25C6F9"/>
</svg>
